<svg xmlns="http://www.w3.org/2000/svg" viewBox="0 0 100 100">
  <!-- ball base -->
  <circle cx="50" cy="50" r="47" fill="#f0f0f0" stroke="#222" stroke-width="3"/>
  <!-- center pentagon -->
  <polygon points="50,34 63,43 58,58 42,58 37,43" fill="#111"/>
  <!-- top patch -->
  <polygon points="50,10 60,18 56,30 44,30 40,18" fill="#111"/>
  <!-- bottom-right patch -->
  <polygon points="72,62 84,58 88,71 78,80 66,74" fill="#111"/>
  <!-- bottom-left patch -->
  <polygon points="28,62 34,74 22,80 12,71 16,58" fill="#111"/>
  <!-- top-right patch -->
  <polygon points="74,28 84,38 78,50 66,46 64,34" fill="#111"/>
  <!-- top-left patch -->
  <polygon points="26,28 36,34 34,46 22,50 16,38" fill="#111"/>
  <circle cx="50" cy="50" r="47" fill="none" stroke="#222" stroke-width="3"/>
</svg>
